{
  "source": "C:\\Users\\Peter\\Desktop\\stuff\\MIUN\\quantitative_research\\video_compression\\videos\\BVI-HD\\BVI-HD_CDVL_videos\\ORIG\\BridgeRiver_1920x1080_30fps.mp4",
  "output": "C:\\Users\\Peter\\Desktop\\stuff\\MIUN\\quantitative_research\\video_compression\\compressed_videos\\BVI-HD\\av1\\2\\BridgeRiver_1920x1080_30fps_av1.mkv",
  "codec": "av1",
  "ok": "Input #0, mov,mp4,m4a,3gp,3g2,mj2, from 'C:\\Users\\Peter\\Desktop\\stuff\\MIUN\\quantitative_research\\video_compression\\videos\\BVI-HD\\BVI-HD_CDVL_videos\\ORIG\\BridgeRiver_1920x1080_30fps.mp4':\n  Metadata:\n    major_brand     : isom\n    minor_version   : 512\n    compatible_brands: isomiso2avc1mp41\n    encoder         : Lavf54.28.101\n  Duration: 00:00:05.00, start: 0.000000, bitrate: 274913 kb/s\n  Stream #0:0[0x1](und): Video: h264 (High 4:4:4 Predictive) (avc1 / 0x31637661), yuv420p(progressive), 1920x1080, 274910 kb/s, 30 fps, 30 tbr, 30 tbn (default)\n    Metadata:\n      handler_name    : VideoHandler\n      vendor_id       : [0][0][0][0]\n[out#0/matroska @ 000001bf2bc18fc0] Codec AVOption b:a (set bitrate (in bits/s)) has not been used for any stream. The most likely reason is either wrong type (e.g. a video option with no video streams) or that it is a private option of some decoder which was not actually used for any stream.\nStream mapping:\n  Stream #0:0 -> #0:0 (h264 (native) -> av1 (libsvtav1))\nPress [q] to stop, [?] for help\nSvt[info]: -------------------------------------------\nSvt[info]: SVT [version]:\tSVT-AV1 Encoder Lib v3.1.0-19-g6ecfe8ec\nSvt[info]: SVT [build]  :\tGCC 15.2.0\t 64 bit\nSvt[info]: LIB Build date: Aug 17 2025 11:37:13\nSvt[info]: -------------------------------------------\nSvt[info]: Level of Parallelism: 5\nSvt[info]: Number of PPCS 93\nSvt[info]: [asm level on system : up to avx2]\nSvt[info]: [asm level selected : up to avx2]\nSvt[info]: -------------------------------------------\nSvt[info]: SVT [config]: main profile\ttier (auto)\tlevel (auto)\nSvt[info]: SVT [config]: width / height / fps numerator / fps denominator \t\t: 1920 / 1080 / 30 / 1\nSvt[info]: SVT [config]: bit-depth / color format \t\t\t\t\t: 8 / YUV420\nSvt[info]: SVT [config]: preset / tune / pred struct \t\t\t\t\t: 4 / PSNR / random access\nSvt[info]: SVT [config]: gop size / mini-gop size / key-frame type \t\t\t: 161 / 16 / key frame\nSvt[info]: SVT [config]: BRC mode / target bitrate (kbps)\t\t\t\t: VBR / 2000 \nSvt[info]: SVT [config]: AQ mode / Variance Boost \t\t\t\t\t: 2 / 0\nSvt[info]: SVT [config]: sharpness / luminance-based QP bias \t\t\t\t: 0 / 0\nSvt[info]: SVT [config]: QP scale compress strength \t\t\t\t\t: 0\nSvt[info]: -------------------------------------------\nOutput #0, matroska, to 'C:\\Users\\Peter\\Desktop\\stuff\\MIUN\\quantitative_research\\video_compression\\compressed_videos\\BVI-HD\\av1\\2\\BridgeRiver_1920x1080_30fps_av1.mkv':\n  Metadata:\n    major_brand     : isom\n    minor_version   : 512\n    compatible_brands: isomiso2avc1mp41\n    encoder         : Lavf62.3.100\n  Stream #0:0(und): Video: av1 (AV01 / 0x31305641), yuv420p(tv, progressive), 1920x1080, q=2-31, 2000 kb/s, 30 fps, 1k tbn (default)\n    Metadata:\n      encoder         : Lavc62.11.100 libsvtav1\n      handler_name    : VideoHandler\n      vendor_id       : [0][0][0][0]\n    Side data:\n      cpb: bitrate max/min/avg: 0/0/2000000 buffer size: 2000000 vbv_delay: N/A\nframe=    0 fps=0.0 q=0.0 size=       0KiB time=N/A bitrate=N/A speed=N/A elapsed=0:00:01.03    \nframe=    0 fps=0.0 q=0.0 size=       0KiB time=N/A bitrate=N/A speed=N/A elapsed=0:00:01.58    \nframe=    0 fps=0.0 q=0.0 size=       0KiB time=N/A bitrate=N/A speed=N/A elapsed=0:00:02.18    \nframe=    0 fps=0.0 q=0.0 size=       0KiB time=N/A bitrate=N/A speed=N/A elapsed=0:00:02.71    \nframe=    0 fps=0.0 q=0.0 size=       0KiB time=N/A bitrate=N/A speed=N/A elapsed=0:00:03.23    \nframe=    0 fps=0.0 q=0.0 size=       0KiB time=N/A bitrate=N/A speed=N/A elapsed=0:00:03.75    \nframe=    0 fps=0.0 q=0.0 size=       0KiB time=N/A bitrate=N/A speed=N/A elapsed=0:00:04.28    \nframe=    1 fps=0.2 q=28.0 size=       1KiB time=00:00:00.00 bitrate=N/A speed=   0x elapsed=0:00:04.78    \nframe=    1 fps=0.2 q=28.0 size=       1KiB time=00:00:00.00 bitrate=N/A speed=   0x elapsed=0:00:05.30    \nframe=    1 fps=0.2 q=28.0 size=       1KiB time=00:00:00.00 bitrate=N/A speed=   0x elapsed=0:00:05.82    \nframe=    4 fps=0.6 q=56.0 size=       1KiB time=00:00:00.10 bitrate=  57.0kbits/s speed=0.0157x elapsed=0:00:06.35    \nframe=    7 fps=1.0 q=53.0 size=       1KiB time=00:00:00.20 bitrate=  28.5kbits/s speed=0.0291x elapsed=0:00:06.87    \nframe=   10 fps=1.3 q=56.0 size=       1KiB time=00:00:00.30 bitrate=  19.0kbits/s speed=0.0405x elapsed=0:00:07.41    \nframe=   14 fps=1.8 q=56.0 size=       1KiB time=00:00:00.43 bitrate=  13.2kbits/s speed=0.0545x elapsed=0:00:07.94    \nframe=   18 fps=2.1 q=56.0 size=       1KiB time=00:00:00.56 bitrate=  10.1kbits/s speed=0.0668x elapsed=0:00:08.48    \nframe=   21 fps=2.3 q=51.0 size=       1KiB time=00:00:00.66 bitrate=   8.6kbits/s speed=0.0737x elapsed=0:00:09.04    \nframe=   23 fps=2.4 q=52.0 size=       1KiB time=00:00:00.73 bitrate=   7.8kbits/s speed=0.0766x elapsed=0:00:09.57    \nframe=   27 fps=2.7 q=52.0 size=       1KiB time=00:00:00.86 bitrate=   6.6kbits/s speed=0.0858x elapsed=0:00:10.09    \nframe=   32 fps=3.0 q=56.0 size=       1KiB time=00:00:01.03 bitrate=   5.5kbits/s speed=0.0972x elapsed=0:00:10.62    \nframe=   35 fps=3.1 q=55.0 size=       1KiB time=00:00:01.13 bitrate=   5.0kbits/s speed=0.102x elapsed=0:00:11.14    \nframe=   38 fps=3.3 q=56.0 size=       1KiB time=00:00:01.23 bitrate=   4.6kbits/s speed=0.106x elapsed=0:00:11.67    \nframe=   41 fps=3.4 q=49.0 size=       1KiB time=00:00:01.33 bitrate=   4.3kbits/s speed=0.109x elapsed=0:00:12.18    \nframe=   46 fps=3.6 q=56.0 size=       1KiB time=00:00:01.46 bitrate=   3.9kbits/s speed=0.115x elapsed=0:00:12.70    \nframe=   50 fps=3.8 q=57.0 size=       1KiB time=00:00:01.63 bitrate=   3.5kbits/s speed=0.123x elapsed=0:00:13.24    \nframe=   55 fps=4.0 q=55.0 size=       1KiB time=00:00:01.80 bitrate=   3.2kbits/s speed=0.131x elapsed=0:00:13.75    \nframe=   57 fps=4.0 q=50.0 size=       1KiB time=00:00:01.86 bitrate=   3.1kbits/s speed=0.131x elapsed=0:00:14.26    \nframe=   59 fps=4.0 q=54.0 size=       1KiB time=00:00:01.93 bitrate=   3.0kbits/s speed=0.131x elapsed=0:00:14.78    \nframe=   63 fps=4.1 q=53.0 size=       1KiB time=00:00:02.06 bitrate=   2.8kbits/s speed=0.135x elapsed=0:00:15.29    \nframe=   67 fps=4.2 q=54.0 size=       1KiB time=00:00:02.20 bitrate=   2.6kbits/s speed=0.139x elapsed=0:00:15.82    \nframe=   71 fps=4.3 q=54.0 size=       1KiB time=00:00:02.33 bitrate=   2.4kbits/s speed=0.143x elapsed=0:00:16.34    \nframe=   73 fps=4.3 q=50.0 size=       1KiB time=00:00:02.40 bitrate=   2.4kbits/s speed=0.142x elapsed=0:00:16.88    \nframe=   75 fps=4.3 q=54.0 size=       1KiB time=00:00:02.46 bitrate=   2.3kbits/s speed=0.142x elapsed=0:00:17.43    \nframe=   77 fps=4.3 q=51.0 size=       1KiB time=00:00:02.53 bitrate=   2.3kbits/s speed=0.141x elapsed=0:00:18.01    \nframe=   81 fps=4.3 q=44.0 size=       1KiB time=00:00:02.66 bitrate=   2.1kbits/s speed=0.143x elapsed=0:00:18.66    \nframe=   81 fps=4.2 q=44.0 size=       1KiB time=00:00:02.66 bitrate=   2.1kbits/s speed=0.138x elapsed=0:00:19.28    \nframe=   85 fps=4.3 q=55.0 size=       1KiB time=00:00:02.80 bitrate=   2.0kbits/s speed=0.141x elapsed=0:00:19.84    \nframe=   89 fps=4.4 q=50.0 size=       1KiB time=00:00:02.93 bitrate=   1.9kbits/s speed=0.144x elapsed=0:00:20.37    \nframe=   93 fps=4.5 q=55.0 size=       1KiB time=00:00:03.06 bitrate=   1.9kbits/s speed=0.147x elapsed=0:00:20.89    \nframe=   97 fps=4.5 q=44.0 size=       1KiB time=00:00:03.20 bitrate=   1.8kbits/s speed=0.149x elapsed=0:00:21.44    \nframe=  101 fps=4.6 q=57.0 size=       1KiB time=00:00:03.33 bitrate=   1.7kbits/s speed=0.152x elapsed=0:00:21.95    \nframe=  105 fps=4.7 q=54.0 size=       1KiB time=00:00:03.46 bitrate=   1.6kbits/s speed=0.154x elapsed=0:00:22.47    \nframe=  109 fps=4.7 q=56.0 size=       1KiB time=00:00:03.60 bitrate=   1.6kbits/s speed=0.157x elapsed=0:00:22.99    \nframe=  115 fps=4.9 q=59.0 size=       1KiB time=00:00:03.80 bitrate=   1.5kbits/s speed=0.162x elapsed=0:00:23.52    \nframe=  121 fps=5.0 q=55.0 size=       1KiB time=00:00:04.00 bitrate=   1.4kbits/s speed=0.166x elapsed=0:00:24.03    \nframe=  125 fps=5.1 q=59.0 size=       1KiB time=00:00:04.13 bitrate=   1.4kbits/s speed=0.168x elapsed=0:00:24.58    \nframe=  133 fps=5.3 q=61.0 size=       1KiB time=00:00:04.40 bitrate=   1.3kbits/s speed=0.175x elapsed=0:00:25.09    \nframe=  137 fps=5.3 q=59.0 size=       1KiB time=00:00:04.53 bitrate=   1.3kbits/s speed=0.177x elapsed=0:00:25.61    \n[out#0/matroska @ 000001bf2bc18fc0] video:1305KiB audio:0KiB subtitle:0KiB other streams:0KiB global headers:0KiB muxing overhead: 0.109053%\nframe=  150 fps=5.8 q=61.0 Lsize=    1306KiB time=00:00:04.96 bitrate=2154.4kbits/s speed=0.191x elapsed=0:00:26.01    \n",
  "seconds": 26.459009885787964,
  "probe_out": {}
}